<?xml version="1.0"?>
<svg width="300" height="150" xmlns="http://www.w3.org/2000/svg" xmlns:svg="http://www.w3.org/2000/svg">
 <!-- Created with SVG-edit - https://github.com/SVG-Edit/svgedit-->
 <title>logo_sluna</title>
 <g class="layer">
  <title>Layer 1</title>
  <rect fill="#000000" height="118.000002" id="svg_22" stroke="#000000" stroke-dasharray="null" stroke-linecap="null" stroke-linejoin="null" stroke-width="0" width="277.000004" x="11" y="17.5"/>
  <g id="svg_21">
   <path d="m240.330621,122.544606c-3.616684,0.618212 -3.686426,-4.258032 -0.438689,-4.413645c-0.973524,-2.09209 -0.228385,-4.658832 1.210459,-6.595052c2.063428,-3.234842 5.166721,-6.450188 4.525553,-10.499882c-0.221966,-2.106833 -3.036481,-5.884217 1.326809,-5.34327c1.179711,-2.100982 0.493626,-5.194157 1.378404,-7.607375c0.772646,-4.574638 2.492384,-9.456009 0.663091,-13.991414c-1.153335,-2.414239 -4.083992,-4.00335 -3.769436,-6.954713c-0.331252,-2.878049 -0.221643,-5.778044 0.140093,-8.647665c1.408316,0.109563 2.975513,-0.275018 4.25957,0.317029c-0.009624,2.785781 2.843315,2.168633 2.501186,-0.198784c0.750532,-0.275656 1.992924,-0.039576 2.93283,-0.118244c4.178698,0 8.357419,0 12.536118,0c-0.478086,1.615092 0.815576,3.696765 2.453727,1.795289c-0.448119,-2.526056 3.304274,-1.690105 2.405027,0.482945c0.052962,2.879082 0.433431,5.857836 -0.438437,8.661337c-1.420016,1.119509 -1.442406,3.322879 -3.221374,4.64309c-1.429565,2.475308 -0.799575,5.466447 -0.640596,8.155224c0.605464,3.979221 1.605143,7.908889 1.854358,11.933879c-0.178254,2.188306 4.678523,1.54425 2.584363,4.237749c-2.288716,1.807925 -0.94903,4.861109 -0.042669,7.020134c1.788767,3.731702 5.559264,7.083727 4.990159,11.460371c-0.451279,1.912072 3.282739,1.265581 2.312112,3.727767c-0.028158,3.0346 -4.889917,1.083785 -7.043515,1.721182c-10.825208,0.121773 -21.653785,0.309815 -32.479146,0.214043l0.000007,0.000004z" fill="#ffffff" id="svg_12" stroke="#000000" stroke-dasharray="null" stroke-linecap="null" stroke-linejoin="null" stroke-width="0"/>
   <text fill="#ffffff" font-family="Sans-serif" font-size="28" id="svg_1" stroke="#000000" stroke-width="0" text-anchor="middle" transform="matrix(0.970071 0 0 0.970071 124.016 -10.0079)" x="-0.508394" xml:space="preserve" y="133.616953">SOLANGE LUNA</text>
   <path d="m243.114052,74.405795l0,0c-13.979291,1.856742 -26.772664,-7.637223 -28.574796,-21.205356c-1.802133,-13.568138 8.069406,-26.072473 22.048697,-27.929215l0,0c-7.196757,6.857739 -10.67666,16.582335 -9.392824,26.24825c1.283836,9.665913 7.181563,18.144959 15.918923,22.886321z" fill="#ffffff" id="svg_13" stroke="#000000" stroke-dasharray="null" stroke-linecap="null" stroke-linejoin="null" stroke-width="0"/>
   <text fill="#ffffff" font-family="Sans-serif" font-size="28" id="svg_18" stroke="#000000" stroke-width="0" text-anchor="middle" transform="matrix(0.659593 0 0 0.659593 267.062 78.8673)" x="-153.065837" xml:space="preserve" y="24.276201">DE LA TORRE</text>
  </g>
 </g>
</svg>